<?xml version="1.0" encoding="UTF-8"?>
<!-- Generator: visioncortex VTracer 0.6.12 -->
<svg version="1.1" xmlns="http://www.w3.org/2000/svg" width="2352" height="560">
<path d="M0 0 C4.952498759388391 0.25139587611108993 9.87657019487392 0.3660071766350086 14.833984375 0.390625 C23.721046152019653 0.5912107203590722 30.725347627214433 2.505026763591985 37.9375 8 C42.736573301855515 11.54393105367798 47.37369574134186 13.06205075535108 53 15 C58.36915103747879 17.42266571203311 62.62600740902781 19.682672953114434 67.125 23.5 C72.12245315965629 27.636435474955277 77.60109079859603 28.837087971648742 83.83984375 30.2734375 C89.66442183055233 32.690774130614244 93.58043108883817 36.63507627598095 98 41 C99.16345947265631 42.1432373046875 100.3269189453124 43.286474609375006 101.525634765625 44.46435546875 C105.47331825658603 48.37461896860759 109.39589541037412 52.30861883632781 113.3125 56.25 C114.65634765625009 57.598359375 116.00019531249995 58.94671875 117.384765625 60.3359375 C119.87005352071537 62.82990221131152 122.35430795669981 65.32489755480671 124.837158203125 67.8212890625 C125.88089599609384 68.870263671875 126.92463378906245 69.91923828124999 128 71 C128.88969482421862 71.89686523437501 129.77938964843747 72.79373046875 130.696044921875 73.7177734375 C132.60562495695808 75.60934429348774 134.57680793390386 77.43849144847371 136.5625 79.25 C140.9184094269583 84.00190119304546 143.05158897590536 88.6668824105133 144.8125 94.85546875 C146.92415325070147 102.14255786960837 149.86778865460496 106.90090345183245 154.9765625 112.52734375 C159.86014679614823 118.49512147096868 159.30993853384507 124.79384824897275 159.4609375 132.08984375 C160.28079021546296 138.03674641795922 163.1691186900814 141.08603055908964 167.125 145.4375 C172.9872760734129 152.70162469966374 172.40967661748027 160.98748778102689 172.625 169.9375 C172.6622216796875 171.2734521484375 172.69944335937498 172.609404296875 172.73779296875 173.98583984375 C173.048389930515 185.99320349465506 173.17624540277734 197.9890632958403 173 210 C172.9874316406249 211.153388671875 172.97486328125 212.30677734375 172.9619140625 213.4951171875 C172.70740712205065 232.9259429879283 171.20950993336191 248.73585331142579 161.94140625 266.1796875 C160.1602230425883 269.6847120007016 158.79243181621746 273.1060684185764 157.5 276.8125 C155.86885830532833 281.30365027418037 153.9583849718449 284.62734441066664 151 288.375 C146.8407812626499 293.69911270702136 145.02758331009818 299.05904268177954 143.203125 305.51953125 C139.42303881540374 316.45478056972513 129.50911735698037 324.669068123217 121 332 C116.7411713048864 336.14125366978845 112.57247092465968 340.37222811010014 108.4453125 344.64453125 C105.27778824283132 347.6956768204038 101.7648603912694 349.74108376523844 98 352 C93.6256534837521 354.6905702778509 90.49677892069917 357.45655033270435 87.1875 361.375 C82.90448844328694 366.2183453994709 78.5252812030451 369.58732631576623 73 373 C72.07187500000009 373.83015625 71.14374999999995 374.6603125 70.1875 375.515625 C66.70460424719272 378.2302349249821 63.980316522185376 379.1979454028229 59.75 380.375 C52.66294348506085 382.56794970747137 47.887461689489555 385.5423504351007 42 390 C37.141691866911515 391.9433232532354 33.27011564450095 392.30874087112903 28.10546875 392.6484375 C25 393 25 393 20.125 394.5625 C11.699890315617267 396.9256405212293 2.245250312046437 397.3730569458372 -6 394 C-6.660000000000082 393.34 -7.319999999999936 392.68 -8 392 C-8 386 -8 386 -5.875 383.25 C-1.094402465639405 379.5086627991961 3.475997017796999 378.7986699860897 9.4375 378.5625 C16.849815805161597 378.05043741323345 21.137270124307406 376.59233360341466 26.875 371.6875 C32.1731312419854 367.34357764379234 38.114477255624706 365.7370658949586 44.62109375 363.84765625 C54.96983474251829 359.48105991685003 62.859478417904256 350.42610173882997 70.66015625 342.5703125 C71.73124130249016 341.4987692260742 72.80232635498055 340.42722595214843 73.90586853027344 339.3232116699219 C76.15113222689251 337.07494448860814 78.39398293262661 334.8242651795633 80.634521484375 332.5712890625 C84.07802070277057 329.1093963933971 87.52959249412015 325.65570958617013 90.982421875 322.203125 C93.16714156754006 320.0134945663878 95.3514029906105 317.8234067739082 97.53515625 315.6328125 C98.57043960571286 314.59641632080076 99.60572296142573 313.56002014160157 100.67237854003906 312.4922180175781 C101.62104293823245 311.5371737670898 102.56970733642584 310.5821295166016 103.547119140625 309.59814453125 C104.38521621704103 308.7562356567383 105.22331329345707 307.91432678222657 106.08680725097656 307.0469055175781 C109.40125433428898 303.500812199999 109.08116787172276 301.0771920337543 109.1875 296.3125 C109.62297359559443 289.6579191173226 110.88057930538821 286.5398636348445 116 282 C117.98456902825842 280.31498856091264 119.98088903728967 278.6434624115084 122 277 C123.39707670165899 274.20584659668197 123.15356892340651 271.74523412120135 123.25 268.625 C123.64729758328144 262.2552125172255 125.17215791614899 257.5322939768829 127.79296875 251.76953125 C130.92550805208157 244.58192489020786 131.11820145895513 237.21738549204593 131.4375 229.5 C131.8122144304582 221.11165590763852 133.0144698758038 214.11813655388852 136.6875 206.5 C139.35333233934966 199.39111376173423 138.4527875251324 193.50690303031251 135.5625 186.6875 C135.11003906249994 185.7219921875 134.65757812499987 184.756484375 134.19140625 183.76171875 C131.26085797491146 176.96861176479456 131.61610562082774 169.52115062368887 131.28125 162.25 C131 157.99999999999994 131 157.99999999999994 130 153 C129.87655470900654 150.3966759743832 129.77424422665172 147.79230520603073 129.6875 145.1875 C129.16766694756552 136.64516879506894 127.59615088582564 131.64251072307255 121.5 125.4375 C117.3944458559422 120.23224385306952 116.35802113361137 115.98167733794617 115.01953125 109.5859375 C113.52546120145848 104.33093250168139 110.84624741554876 100.92146940804201 107.1875 96.9375 C103.64503912672399 92.56151892124714 101.30546905819392 88.05251948139772 98.72265625 83.07421875 C96.59079184238226 79.26973510193852 93.88775046398769 76.25639945939045 91 73 C90.05124999999998 71.329375 89.10249999999996 69.65875 88.125 67.9375 C84.07056432245668 61.53149162948168 79.46287547587917 58.485543937831864 73.0625 54.625 C67.18499446152236 50.827227190522194 61.880679463003844 46.54145873378911 57.6875 40.875 C52.302829923115496 35.114655266588684 44.70348347001345 32.5867554174491 37.375 30.0625 C33.051842778957734 28.40361408960004 30.434004144221262 27.080368673187436 26.8125 24.4375 C21.11771259966008 20.369794714042854 15.938914022155586 18.594600300127738 9.3125 16.5625 C4.116738317291947 14.6799776511927 1.2783733371022663 12.773227532109615 -1.9375 8.3125 C-4.592685815491677 5.3354734796003385 -6.080835831453669 5.307385424984034 -10 5 C-13.8125 4.6875 -13.8125 4.6875 -17 4 C-17.329999999999927 2.680000000000007 -17.660000000000082 1.3599999999999994 -18 0 C-11.270526884048195 -4.1033372658242655 -7.095237320386104 -2.838094928154433 0 0 Z " fill="#000000" transform="translate(1732,82)"/>
<path d="M0 0 C5.572842410384055 2.1747677699059693 8.81332709100434 4.89676536242861 13.25 8.78515625 C17.033316078432335 11.699748935422733 20.919658637871407 13.256611731111093 25.3984375 14.83203125 C30.181982867861507 16.881143090960776 33.04445099619875 19.90729265600244 36.4375 23.8125 C40.079483843833486 27.94831216164144 43.97552502332019 31.38594114934338 48.125 35 C48.888124999999945 36.010625000000005 49.65124999999989 37.02125000000001 50.4375 38.0625 C53.125 41 53.125 41 58.11328125 43.55078125 C64.76934138127672 47.10144486267069 69.72636484890359 51.79004350993739 75 57.125 C75.45503906249996 57.56199218749998 75.45503906249996 57.56199218749998 77.7578125 59.7734375 C84.03835160352423 66.05397660352426 87.18084716563408 71.62048808680453 90.125 80 C92.64759652152566 87.04587304288208 95.61905862904382 92.3215915145343 100.11328125 98.203125 C102.0859332951029 100.94568590154108 103.641971041656 103.68759928728957 105.1875 106.6875 C107.18125437267236 110.53298788592139 108.89094390857781 112.85530403124525 111.875 116.1875 C120.3606415239924 126.14181024929891 118.21357579471214 142.1366510826101 117.8671875 154.484375 C118.38350146278117 163.52769228749963 121.68104358860114 167.91404116701213 128.125 174 C129.7945374359001 179.00861230770062 129.3940685246771 184.2650595077539 129.4375 189.5 C129.46650390624995 190.63437499999998 129.4955078124999 191.76875 129.525390625 192.9375 C129.58981434114594 201.58018930450203 128.02139031811453 208.20721936377083 124.125 216 C123.99306089694073 218.456999296969 123.89447244787812 220.9158265636578 123.8125 223.375 C123.46442353623343 229.62380127809502 122.41860807231637 234.66237981279812 120.1484375 240.5390625 C118.77885131167591 245.1705638849436 118.39610338650618 249.7642882982738 117.875 254.5625 C116.83095698463376 262.66681180436143 115.3530117782384 267.56944151561305 110.05078125 273.734375 C105.97969141199792 278.523892456473 104.29289208052364 284.484331466963 102.375 290.375 C100.88080518456445 294.6390658369348 98.98605476368994 297.7111146140206 96.1875 301.25 C92.01576748820389 306.6291356135404 90.16662110321636 312.00933422778974 88.328125 318.51953125 C85.17411496759496 327.6436317008861 78.41314910454025 333.127003674629 70.1875 337.8125 C65.10642387386588 341.0116960794178 61.98251036824081 344.16682432848927 58.15234375 348.68359375 C56.125 351.00000000000006 56.125 351.00000000000006 52.9375 353.625 C50.125 356.00000000000006 50.125 356.00000000000006 47.4375 359.875 C43.88636161893328 364.2971723235926 40.64727342601782 366.4489932700243 35.828125 369.27734375 C33.125 370.99999999999994 33.125 370.99999999999994 29.5 374.625 C24.955011555063493 378.13113394323665 22.09750782718038 379.0195798610685 16.625 380.4375 C8.94806826611034 382.44654106034204 5.541315157308418 385.11676112223404 0.125 391 C-3.475344848446639 392.72733307757846 -7.043923076472311 393.79722003563666 -10.875 395 C-14.750746349325482 396.7943270135766 -18.194029876711966 398.7914179260272 -21.875 401 C-22.86500000000001 400.67 -23.855000000000018 400.34 -24.875 400 C-24.875 399.01 -24.875 398.02 -24.875 397 C-23.82312499999989 396.278125 -22.77125000000001 395.55625 -21.6875 394.8125 C-17.401698914621875 391.6508434616063 -15.602003623018163 388.52108495395106 -12.875 384 C-9.824809219000144 380.94980921900003 -7.533400954547005 379.8700961376447 -3.4375 378.3125 C2.169448735015294 375.4706218740334 3.8368030479969093 372.2611151232049 7.125 367 C10.146395375926431 364.62145470405795 13.040077624782725 363.04088855103055 16.5 361.375 C23.99022087258436 356.4676139110654 28.144388697051 349.00819580895154 32.5625 341.4375 C37.72644131129505 332.92223328231074 44.12985302959123 326.66990415851967 51.3671875 319.9375 C56.53714438700058 314.52033103732157 59.00783426507542 308.9637245588996 61.125 301.875 C63.02198012065605 295.99214725228444 65.61621484034777 291.8182795513758 69.5625 287.0625 C72.68367179860161 282.11430080709493 74.12967266916735 277.1550714181201 75.859375 271.59375 C77.37031369149167 267.3034302587271 79.7043150299371 263.8327512025997 82.125 260 C82.875 256.12499999999994 82.875 256.12499999999994 83.125 252 C83.62099728447697 245.38670287364164 84.66664811067858 240.14587972330366 87.125 234 C88.07810121241096 229.48539906959923 88.2567003595575 225.16865539690127 88.270263671875 220.56103515625 C88.27664352416991 219.08575347900387 88.28302337646483 217.61047180175785 88.28959655761719 216.09048461914063 C88.29070938110362 214.5060153198242 88.29182220458983 212.92154602050778 88.29296875 211.2890625 C88.29629714965813 209.65182220458985 88.29962554931649 208.0145819091797 88.30305480957031 206.32772827148438 C88.3081153838823 202.86627482874974 88.31046340357011 199.404816513232 88.310302734375 195.943359375 C88.3124887368217 190.65226189748137 88.33065294167909 185.36137308351425 88.349609375 180.0703125 C88.35254356327391 176.70572987920127 88.35452818880685 173.34114626875748 88.35546875 169.9765625 C88.35906150817868 169.18635208129882 88.35906150817868 169.18635208129882 88.37724304199219 165.18740844726563 C88.37570472717289 164.44661544799806 88.37570472717289 164.44661544799806 88.367919921875 160.69775390625 C88.36934494018556 159.40124908447265 88.37076995849611 158.1047442626953 88.37223815917969 156.76895141601563 C87.78326567136992 147.79052875144765 85.17281705440882 143.57832732233936 79.125 137 C76.322620728733 132.33159729989399 75.50083328613118 128.11309490093782 74.75 122.75 C73.58219918823215 115.65196069097317 71.66345300692478 110.31866608379437 68.125 104 C67.2673310188477 102.0103145064574 66.4349466976928 100.00958473106786 65.625 98 C62.02018647414843 89.27255672688582 58.16344519074505 81.72835040309383 52.08203125 74.49609375 C50.125 72.00000000000003 50.125 72.00000000000003 47.375 67.0625 C44.246055664704954 61.58897884670449 39.868864780319655 58.04354060067462 35.15625 53.9375 C31.10020214746055 50.00689692640515 28.232660298296878 45.58594505766351 25.140625 40.88671875 C21.585421399709503 35.79506088059182 17.330521489587454 32.72331289375242 12.0625 29.5625 C8.125 27 8.125 27 5.4375 23.625 C1.4687254646964902 19.28181277268662 -2.5909545094752957 17.287247845122536 -7.8515625 14.7734375 C-11.671346575027883 12.532892319040485 -13.902615980406154 9.94476803918765 -15.875 6 C-16.0625 2.437499999999986 -16.0625 2.437499999999986 -15.875 -1 C-11.223572540685154 -3.32571372965738 -4.859179784720027 -0.9967548276348737 0 0 Z " fill="#000000" transform="translate(1870.875,83)"/>
<path d="M0 0 C1.5823242187499886 0.023203125000009095 3.1646484375000057 0.04640624999998977 4.794921875 0.0703125 C14.220330909079507 0.32430246976045396 20.61834120396219 1.1668809029716272 28.3125 6.9375 C33.142244656236755 9.81677085275652 38.08373806774344 10.657497348387437 43.5625 11.875 C44.00754614781954 19.28237825692929 42.56984194701977 24.615949037372786 39.875 31.5 C39.19050781249999 33.28664062499999 38.506015625 35.07328125000001 37.80078125 36.9140625 C34.596638970630835 44.01573910523359 31.406726585244428 49.00652410399229 24.5625 52.875 C18.21382782955419 54.99122405681527 12.969292546007438 54.31623176048396 7.0625 51.4375 C2.106748044054683 49.02510335941466 -1.8242172293287808 47.795939679286334 -7.4375 47.875 C-12.6875 49.6875 -12.6875 49.6875 -17.4375 51.875 C-23.947352179547522 54.47894087181902 -29.891091916641017 54.82167558333245 -36.875 55.0625 C-50.42589760393096 57.04184459383262 -59.794308026328224 67.93437523557839 -68.4375 77.875 C-78.37021555432113 95.70031296182282 -76.94263143552257 116.36251099189889 -76.7381591796875 136.11062049865723 C-76.68656097197578 141.14235299313373 -76.66091016446893 146.1736582126107 -76.6416015625 151.2056121826172 C-76.59620145455864 161.86643574731409 -76.51910030425768 172.52690025052686 -76.4375 183.1875 C-76.3429818135547 195.59356796027794 -76.26158090010776 207.99943962520604 -76.2137451171875 220.40578269958496 C-76.18784384311823 225.3600131323402 -76.13784411197258 230.3136272568247 -76.0869140625 235.2676544189453 C-76.0723883124615 238.2960252529624 -76.05898084494754 241.32440172876318 -76.046875 244.352783203125 C-76.02620971679687 245.72685836791993 -76.00554443359374 247.10093353271486 -75.9842529296875 248.5166473388672 C-75.9827356235777 255.34002710415092 -76.00752638189755 260.30040556749407 -80.4375 265.875 C-83.34765625000006 267.8359375 -83.34765625000006 267.8359375 -86.5 269.25 C-87.02142578125 269.49105468749997 -87.02142578125 269.49105468749997 -89.66015625 270.7109375 C-96.06831827511193 273.39677756115805 -101.93632178672925 273.096408822398 -108.8125 273.125 C-109.42867187499999 273.1353125 -109.42867187499999 273.1353125 -112.546875 273.1875 C-113.73539062500001 273.19265625 -114.92390625 273.1978125 -116.1484375 273.203125 C-117.2343115234375 273.212470703125 -118.320185546875 273.22181640625 -119.43896484375 273.2314453125 C-122.4375 272.875 -122.4375 272.875 -127.4375 269.875 C-131.57149474474267 264.3630070070098 -131.558799261535 261.3618079157807 -131.53756713867188 254.5956573486328 C-131.53608673095704 253.71588981628418 -131.53608673095704 253.71588981628418 -131.52859497070313 249.26373291015625 C-131.5202865600586 247.3234320068359 -131.51197814941406 245.38313110351567 -131.50341796875 243.384033203125 C-131.49822657626345 241.32763276837056 -131.49351808174467 239.2712310657863 -131.4892578125 237.21482849121094 C-131.4793041234392 232.78027006250142 -131.4664495236866 228.3457325944504 -131.45153427124023 223.91118812561035 C-131.42850261303823 216.89792815150258 -131.41517636165253 209.8846710854134 -131.40383911132813 202.8713836669922 C-131.37038002561758 182.9260190356349 -131.32881194950787 162.98069609320464 -131.26611328125 143.035400390625 C-131.23158159943827 132.0244785204211 -131.20777741918153 121.01358778596989 -131.19590485095978 110.00261753797531 C-131.18913418586334 104.1751136524731 -131.17667881510044 98.34774167584516 -131.15087509155273 92.52028846740723 C-131.12659571704933 87.03658771338408 -131.11623045781488 81.55303725421936 -131.11647033691406 76.06928443908691 C-131.11289867791515 73.10079676370975 -131.09435157028906 70.13233890673672 -131.07534790039063 67.16390991210938 C-131.07802673339845 65.39027572631835 -131.08070556640627 63.616641540527354 -131.08346557617188 61.78926086425781 C-131.0794013786316 60.251919450759885 -131.0753371810913 58.71457803726196 -131.0711498260498 57.13065052032471 C-131.83739928520146 48.22963138233325 -135.45273605707183 43.30307979055249 -141.4375 36.875 C-144.302233030768 31.145533938463984 -142.64330147759398 22.752364193953383 -141.25 16.8125 C-139.31450580269546 12.607805709303932 -138.31245820133287 11.263165246639772 -134.4375 8.875 C-128.28659924205095 7.975654629277329 -122.08449849168073 8.180504695653383 -115.875 8.1875 C-114.18568359375 8.146894531250013 -112.4963671875 8.106289062499997 -110.755859375 8.064453125 C-101.25671439964329 8.038529532474655 -94.64636396022927 8.686838587962825 -86.82470703125 14.30078125 C-82.91995257449454 16.875730803810512 -79.95377678289574 16.574704853688075 -75.4375 15.875 C-66.62219661985716 13.443192170995076 -61.380577189378556 9.757329285445735 -54.4375 3.875 C-49.3783706457113 2.1886235485704333 -44.03553362007793 2.4724627895997173 -38.734375 2.25390625 C-34.56533302101599 1.9556783208248874 -30.601759841314106 1.4616231737884675 -26.48046875 0.83203125 C-17.618798464990817 -0.3898270163590496 -8.925074244976145 -0.26630971638553547 0 0 Z " fill="#000000" transform="translate(214.4375,139.125)"/>
<path d="M0 0 C3.412239158324269 0.008490570918610274 6.822789476902699 -0.020285746123931858 10.23486328125 -0.052001953125 C26.466243460582632 -0.1066455958820427 40.46632213192697 1.5483738620128804 55.12158203125 9.008544921875 C59.710405184598756 11.324436096288451 64.03464154531633 13.39701168741368 68.92236328125 15.000732421875 C72.76425121124299 16.303664167152192 75.25486448853496 17.571495712807035 78.43408203125 20.008544921875 C85.99030512411804 25.47686426539792 85.99030512411804 25.47686426539792 91.24267578125 25.403076171875 C95.09715713877841 24.148962051563643 96.07116890857645 22.506105307128678 98.24658203125 19.133544921875 C101.49118824460447 14.163790210622466 104.40792545889838 10.371430445992189 110.18408203125 8.446044921875 C114.48457988253585 8.295556437173218 118.75801152114633 8.214644145702465 123.05908203125 8.196044921875 C123.65140625000004 8.185732421875002 123.65140625000004 8.185732421875002 126.64892578125 8.133544921875 C127.79232421875008 8.128388671875001 128.93572265624994 8.123232421875002 130.11376953125 8.117919921875 C130.6357592773437 8.113247070312497 130.6357592773437 8.113247070312497 133.27734375 8.089599609375 C136.18408203125 8.446044921875 136.18408203125 8.446044921875 141.18408203125 11.446044921875 C145.30280247019812 16.93767217380585 145.30807487922743 20.76014816860146 145.3019256591797 27.42803955078125 C145.3030435180665 29.096393585205078 145.30416137695306 30.764747619628906 145.30531311035156 32.48365783691406 C145.30347770690923 33.400581588745126 145.30347770690923 33.400581588745126 145.294189453125 38.040771484375 C145.2945913858997 41.0013696556706 145.2950031225438 43.96196784134892 145.29578363895416 46.922565937042236 C145.29594798697303 50.10785699251164 145.29392228678626 53.29314154694373 145.29161643981934 56.478431701660156 C145.28798631318682 63.1179482116398 145.2971179827597 69.75740764371307 145.3094024658203 76.39691162109375 C145.31142439544203 77.51738112688065 145.31344632506375 78.63785063266755 145.31552952528 79.79227375984192 C145.31969820445215 82.08357753574887 145.32390096076915 84.37488124989994 145.32813704013824 86.66618490219116 C145.35628712834557 102.12425125583798 145.3764084262699 117.58219395540948 145.359130859375 133.040283203125 C145.3475727691997 143.46644286594784 145.35716333257074 153.89234648513388 145.39118844270706 164.31846022605896 C145.40834400321114 169.8352857898924 145.41463133232992 175.35164928079433 145.3950710296631 180.86847686767578 C145.37344429848577 187.0239166478807 145.39830801139613 193.17832930497843 145.427001953125 199.333740234375 C145.413209991455 201.159490814209 145.39941802978524 202.985241394043 145.3852081298828 204.86631774902344 C145.4973434607473 217.24369089257868 145.4973434607473 217.24369089257868 149.0438995361328 223.45306396484375 C150.0801597595215 224.44074768066406 151.1164199829102 225.42843139648437 152.18408203125 226.446044921875 C156.73352510507766 230.99548799570266 156.38274744304954 234.5683522167157 156.68408203125 240.821044921875 C156.91216471554765 245.53746900074407 157.2560235019564 249.8057522754068 158.18408203125 254.446044921875 C158.71424018356322 260.91397438009636 157.78515923355326 264.9982614619804 154.18408203125 270.446044921875 C148.20952441696295 273.957270535507 143.28448857938804 273.5717534076806 136.49658203125 273.071044921875 C130.27668727249034 272.6786876827766 124.32106217001137 272.32057268702494 118.12158203125 273.008544921875 C113.18408203125 273.446044921875 113.18408203125 273.446044921875 108.18408203125 271.446044921875 C104.93753114934901 268.0639755821088 103.27468532953174 264.67476251932993 101.62158203125 260.321044921875 C100.11042074549619 256.3474339344174 99.25443838143565 254.51640127206065 96.18408203125 251.446044921875 C89.7786345307187 250.5119171613809 83.85176391822915 252.55616757554805 78.18408203125 255.446044921875 C75.79345703125006 257.38745117187494 75.79345703125006 257.38745117187494 73.55908203125 259.508544921875 C67.77969434226316 264.7099938419632 62.617763070607566 265.8680456750276 55.18408203125 267.633544921875 C48.957675320395936 269.8906173545596 45.95007987807867 272.9000162064384 41.18408203125 277.446044921875 C37.223317743151654 278.76629968457445 33.54212350962854 278.7557023605146 29.37158203125 278.946044921875 C20.767357389535277 279.3406694754672 20.767357389535277 279.3406694754672 17.401611328125 279.94873046875 C10.606642948726517 280.99898849961994 3.670385555476855 280.7169444558833 -3.19091796875 280.758544921875 C-4.746816406249991 280.787548828125 -6.302714843749982 280.816552734375 -7.90576171875 280.846435546875 C-21.193198703407916 280.9184691919128 -33.93369246427085 279.4563401387902 -45.50341796875 272.446044921875 C-50.19494173723018 269.7595302586611 -54.40022875028325 267.81737324147286 -59.62841796875 266.446044921875 C-65.34942840880444 264.8623017878599 -68.86631729237979 262.4071986025065 -73.28466796875 258.512451171875 C-76.0108685729723 256.2868954316997 -78.77739736743172 254.72727183394272 -81.87841796875 253.071044921875 C-87.26182014935682 250.05192820599052 -90.81336616617466 246.55478081382267 -94.73779296875 241.832763671875 C-96.81591796875 239.446044921875 -96.81591796875 239.446044921875 -100.81591796875 236.258544921875 C-105.63636538873283 231.66405597470384 -108.43199459662003 226.71122818014697 -111.71826171875 220.961669921875 C-114.04605360506804 217.06034273810172 -116.84854726499128 213.87500662399617 -119.81591796875 210.446044921875 C-121.36196860052229 207.74461236635898 -122.79264847630492 204.9956974391108 -124.22998046875 202.235107421875 C-125.8313149059731 199.4189675495171 -127.60949233725142 196.97588234583446 -129.62841796875 194.446044921875 C-134.72539521116258 188.04983818629842 -134.1137959962725 182.5110926692995 -134.43701171875 174.547607421875 C-134.72642861244236 170.6509222346357 -135.1887826593489 167.00951170995683 -135.83935546875 163.172607421875 C-136.91557731166185 156.47296767893675 -137.08275279418265 149.97046501552654 -137.00341796875 143.196044921875 C-136.994072265625 141.99818359375 -136.9847265625 140.80032226562503 -136.97509765625 139.566162109375 C-136.937081348522 135.85908471733535 -136.87825324973045 132.15278540978363 -136.81591796875 128.446044921875 C-136.80890869140626 127.85307617187499 -136.80890869140626 127.85307617187499 -136.7734375 124.852294921875 C-136.72761177139753 121.46591530721116 -136.6524085521767 118.08160594116958 -136.56591796875 114.696044921875 C-136.51951171875 112.72120117187501 -136.47310546875 110.74635742187502 -136.42529296875 108.711669921875 C-135.6267861398301 101.81175193864408 -133.67201181627655 97.38112148631757 -128.87841796875 92.383544921875 C-125.11573352175225 87.54580777573503 -123.88097618927736 82.90522751630252 -122.09326171875 77.102294921875 C-120.40423627297122 72.26765327891195 -117.85839346705353 68.54407314407973 -114.81591796875 64.446044921875 C-109.02851639394686 55.82399767778048 -109.02851639394686 55.82399767778048 -106.56591796875 51.446044921875 C-103.56637713597468 47.083076437838145 -100.28166162742485 44.091878709464964 -96.28076171875 40.672607421875 C-93.81591796875 38.446044921875 -93.81591796875 38.446044921875 -90.50341796875 34.321044921875 C-86.32477648495535 29.929930142294154 -82.29572039752509 27.837858347962168 -76.92529296875 25.164794921875 C-73.81591796875 23.446044921875 -73.81591796875 23.446044921875 -70.12841796875 19.883544921875 C-64.6067927981465 15.482249496031642 -59.12313104842269 14.036795314266726 -52.42529296875 11.989013671875 C-47.07285638601462 10.197308205620374 -42.32711412126082 7.818616402937266 -37.41748046875 5.059326171875 C-25.35073759840202 -0.34584172991861806 -12.955328115538578 -0.049108309978805664 0 0 Z M-0.81591796875 52.446044921875 C-4.81591796875 53.446044921875 -4.81591796875 53.446044921875 -9.12841796875 53.321044921875 C-24.725691443273377 53.6638421410953 -34.29478806791644 58.022165487787476 -45.81591796875 68.446044921875 C-46.99154296874997 69.41541992187501 -48.16716796874999 70.384794921875 -49.37841796875 71.383544921875 C-53.22920139021426 74.81424287917952 -56.491656039108136 78.50617893118834 -59.81591796875 82.446044921875 C-60.63705078124997 83.37288085937502 -61.45818359374999 84.299716796875 -62.30419921875 85.254638671875 C-64.89801057823729 88.5503523277088 -66.60086209668572 91.71835038260107 -68.37841796875 95.508544921875 C-70.491117714648 100.00230119432777 -72.70554664959138 103.59663909506503 -75.81591796875 107.446044921875 C-79.99827204058806 118.28918510812184 -80.02647367908355 128.53518716515356 -80.06591796875 140.008544921875 C-80.08654296875 141.48129882812498 -80.10716796874999 142.954052734375 -80.12841796875 144.471435546875 C-80.16999173278913 156.22122060843913 -80.08834344558107 168.53121266882283 -72.50341796875 178.133544921875 C-69.59813528059448 181.98397566402986 -67.11203719840205 185.60956906565605 -65.00341796875 189.946044921875 C-58.96793035769872 201.23984776666407 -51.047887893367715 208.69019803386942 -39.06982421875 213.055419921875 C-35.71835914987685 214.48773872681954 -33.68924671554032 216.0101365915985 -31.06591796875 218.508544921875 C-21.78808015258528 227.10418878096874 -7.908178467578807 232.37395903251718 4.55908203125 234.258544921875 C11.505926706100809 233.25511180217433 17.33463873525733 230.81722459108028 23.78955078125 228.121826171875 C27.618431661855027 226.6617462627376 30.897696721511068 225.79639452105562 34.93408203125 225.258544921875 C41.90739553843457 224.1793416410012 44.60955874782644 222.11318722197052 49.37158203125 217.071044921875 C53.25023130546924 213.38314889065015 56.77194016333999 211.3975067880839 61.46923828125 208.981201171875 C67.50867504987667 205.56609520055088 72.42562410821756 200.44242574105903 77.18408203125 195.446044921875 C78.54533203125004 194.04354492187497 79.90658203124997 192.641044921875 81.30908203125 191.196044921875 C86.96723762669046 184.70986655637012 88.12461477713111 177.87214231046437 89.55908203125 169.571044921875 C90.45614770421878 164.4105058354417 91.57640289273422 160.12232564412454 93.93408203125 155.446044921875 C96.37145458173535 150.02966147635203 96.7036719184789 148.07746626866435 95.18408203125 142.446044921875 C94.85408203125002 141.75510742187498 94.85408203125002 141.75510742187498 93.18408203125 138.258544921875 C90.85150635817104 132.89362087379345 90.84857842988583 127.81526779372115 90.68408203125 122.008544921875 C90.32726430240314 111.4601208128405 89.84379443637818 103.6494001553699 81.87158203125 96.071044921875 C81.47712890625002 95.712041015625 81.47712890625002 95.712041015625 79.48095703125 93.895263671875 C76.8509754094215 91.09084449349666 75.34300848032672 88.31455314262655 73.62158203125 84.883544921875 C70.55901503177387 78.79393954240624 67.2329810879445 75.00634084405067 62.18408203125 70.446044921875 C61.33845703124996 69.57979492187499 60.49283203125003 68.71354492187498 59.62158203125 67.821044921875 C51.54887637261504 59.95533171602551 44.99326239264815 56.66287835593721 33.80908203125 55.071044921875 C28.57284327956836 54.21810359211503 24.22572258445473 53.2994304991567 19.55908203125 50.758544921875 C11.484974790911565 46.490802523410395 7.128474726100762 48.646552763468094 -0.81591796875 52.446044921875 Z " fill="#000000" transform="translate(387.81591796875,139.553955078125)"/>
<path d="M0 0 C1.153106689453125 -0.006656799316402839 2.30621337890625 -0.013313598632805679 3.4942626953125 -0.020172119140625 C5.931705857191787 -0.03027497742598939 8.369176547005281 -0.03498987367314044 10.806640625 -0.03466796875 C14.491364564260493 -0.0390154406238139 18.174864684454064 -0.0752915212510743 21.859375 -0.11328125 C41.3753946719055 -0.20585657254423495 57.88723037875866 1.3150415222520166 72.79296875 15.08984375 C75.03125 17.33593749999997 75.03125 17.33593749999997 77.53125 20.6484375 C82.02025158295942 25.47411420168143 87.26350993657297 27.049820911164716 93.734375 27.71875 C101.16818302900674 27.94087573791853 106.72847874796821 27.648359935600695 113.03125 23.3359375 C114.20687500000008 22.1809375 115.38249999999994 21.025937499999998 116.59375 19.8359375 C121.8271571001103 15.708179787236986 126.07199472144248 14.841146181219244 132.45703125 13.3671875 C137.20746644924293 11.99657013103814 140.36042553303264 9.591196932971059 144.03125 6.3359375 C149.5765913525213 2.1769314856090034 153.07573936792596 2.145912050564135 159.90625 1.8359375 C164.79076301681926 1.6135531675269306 169.2292423281924 1.296339034361523 174.03125 0.3359375 C179.81988525776887 0.054010819771434626 185.61150127886162 0.05828963745673832 191.40625 0.0234375 C192.19064453124997 0.008935546874994316 192.19064453124997 0.008935546874994316 196.16015625 -0.064453125 C213.41390652373389 -0.15752314722345773 227.73257442734712 3.1226089472995113 240.63671875 14.921875 C243.03125 17.335937499999915 243.03125 17.335937499999915 245.39453125 20.375 C248.3528959125822 23.69713394701833 251.09478879427184 25.299836876347513 255.03125 27.3359375 C262.2878226588796 31.089337151144605 266.2947350225443 35.42379781176092 269.90625 42.7109375 C272.64019947122506 47.92385669901964 276.09807271628233 51.948932068161014 280.03125 56.3359375 C282.4582240141276 62.40337253531905 282.7456091968729 67.92802424462047 283.2734375 74.40234375 C284.03125 79.33593750000006 284.03125 79.33593750000006 286.0425109863281 84.63189697265625 C288.62332367111844 92.25333721016426 288.6191540445268 99.5495679159626 288.60888671875 107.5341796875 C288.6224369812012 109.11291366577149 288.6359872436524 110.69164764404297 288.6499481201172 112.31822204589844 C288.68945272352084 117.50649854548277 288.7007848898206 122.69440211806062 288.7109375 127.8828125 C288.7310112626542 131.50100506904317 288.75252736558855 135.1191898980726 288.7754211425781 138.73736572265625 C288.81917552174446 146.30586881321767 288.8497280589593 153.87426968234138 288.8701171875 161.44287109375 C288.896707608003 171.14307686902936 288.94964884973024 180.8429121958145 289.01161003112793 190.54294967651367 C289.0575187276909 198.008107477919 289.092825052898 205.4732843926207 289.1245765686035 212.93851470947266 C289.1404363733782 216.51567022266607 289.1588206872732 220.09281546641785 289.1797752380371 223.6699447631836 C289.20678576003866 228.6650828378373 289.2203304636869 233.66007554302274 289.22998046875 238.6552734375 C289.24023757934583 240.13182907104493 289.25049468994143 241.60838470458987 289.2610626220703 243.1296844482422 C289.2596829393774 259.3927241838411 289.2596829393774 259.3927241838411 283.71875 266.7109375 C276.83157341008746 273.48138228330396 270.12403124906905 272.6714153148831 261.09375 272.6484375 C259.83111328125005 272.66455078125 258.5684765625001 272.6806640625 257.267578125 272.697265625 C256.6568847656249 272.69758789062496 256.6568847656249 272.69758789062496 253.56640625 272.69921875 C253.01150512695313 272.7007092285156 253.01150512695313 272.7007092285156 250.203369140625 272.708251953125 C244.82620896816434 272.07712986715546 241.67656578490391 269.94402352808254 237.78125 266.2734375 C231.73248613828332 257.6127074252694 232.79241594688392 246.99717814083704 232.943603515625 236.85546875 C232.95788391113274 235.3290072631836 232.9721643066407 233.8025457763672 232.98687744140625 232.22982788085938 C233.01894550141606 228.92761603177507 233.055714690704 225.62544718005904 233.09668159484863 222.32333374023438 C233.16082067156572 217.09426922362974 233.21108453438887 211.86523591940966 233.25755310058594 206.635986328125 C233.392291168876 191.77240948898873 233.55339836654412 176.90914319344438 233.720458984375 162.0458984375 C233.821807181062 152.94405262001465 233.90819764005505 143.842159167006 233.9858226776123 134.74008178710938 C234.01858070908133 131.27617294270306 234.05729629499024 127.81231506431192 234.10211372375488 124.34854125976563 C234.16475475246284 119.504521403078 234.2085329321494 114.66066025856679 234.248291015625 109.81640625 C234.2715696716309 108.3906527709961 234.29484832763683 106.9648992919922 234.31883239746094 105.49594116210938 C234.40776247928125 89.03963532020407 228.60808296458663 72.90330380866905 217.40625 60.6484375 C215.63235554452353 58.8598015393533 213.84273831817563 57.08648890227366 212.03125 55.3359375 C210.87625000000003 54.119062499999984 209.72125000000005 52.9021875 208.53125 51.6484375 C203.74046939538994 47.216965440735635 198.14773659615526 48.11696819225941 191.96875 48.0859375 C190.96908203125008 48.065312500000005 189.96941406249994 48.04468750000001 188.939453125 48.0234375 C180.18739995725582 47.97794274669138 173.17912223489566 50.04450273696588 165.15625 53.3359375 C161.2524824959503 54.85935896499504 157.822643244461 55.91789261483851 153.78125 56.8359375 C143.06689814511833 59.63098580996916 134.1673019313173 67.23753354657157 128.390625 76.62890625 C126.17267412725323 80.82512620763228 124.06041101015035 85.04571136425344 122.03125 89.3359375 C121.70125000000007 89.9959375 121.70125000000007 89.9959375 120.03125 93.3359375 C119.80635833740234 96.32017898559587 119.80635833740234 96.32017898559587 119.8421630859375 99.87530517578125 C119.84644065856946 100.54961326599121 119.84644065856946 100.54961326599121 119.86808776855469 103.96202087402344 C119.88777114868162 105.4405403137207 119.90745452880856 106.91905975341797 119.927734375 108.4423828125 C119.9404084777832 110.00044143676757 119.95308258056639 111.55850006103515 119.96614074707031 113.16377258300781 C119.99498975579763 116.55284918493646 120.02851552010861 119.94188840914933 120.06611633300781 123.33087921142578 C120.12532327786789 128.69334226824594 120.17196215993363 134.0557820440515 120.2152099609375 139.41839599609375 C120.32527460098026 152.74117007339277 120.45708287890102 166.0637133597532 120.58843994140625 179.38629150390625 C120.69856245935603 190.63458800565195 120.80035694943035 201.88289923870684 120.89094543457031 213.1313705444336 C120.9369732904579 218.41608800988394 120.99532487461602 223.7005793462746 121.0540771484375 228.98516845703125 C121.08158230407867 232.22741188304002 121.10850947494419 235.46966028130578 121.134765625 238.7119140625 C121.15444900512693 240.18233657836913 121.17413238525387 241.65275909423826 121.19441223144531 243.16773986816406 C121.2961808606899 259.34451938210776 121.2961808606899 259.34451938210776 115.71875 266.7109375 C108.81902463689971 273.4937183654206 102.07868337854484 272.67137723980363 93.03125 272.6484375 C92.39574218749999 272.656494140625 92.39574218749999 272.656494140625 89.1796875 272.697265625 C88.5673828125 272.69758789062496 88.5673828125 272.69758789062496 85.46875 272.69921875 C84.35371093749995 272.70219970703124 83.23867187499991 272.7051806640625 82.08984375 272.708251953125 C79.03125 272.3359375 79.03125 272.3359375 74.03125 269.3359375 C71.11516038843365 264.8794165572878 70.65699379167177 261.35223062269665 70.65943908691406 256.0870361328125 C70.65268157958985 254.63181045532224 70.64592407226564 253.17658477783203 70.63896179199219 251.67726135253906 C70.64668106079102 250.0905815124512 70.65440032958986 248.50390167236327 70.662353515625 246.869140625 C70.66047027587888 246.0298375701904 70.66047027587888 246.0298375701904 70.65093994140625 241.78245544433594 C70.64450281633435 238.1369940047246 70.644841812408 234.49151578541 70.65112495422363 230.84605407714844 C70.66021398571365 225.08056371888722 70.65003569639885 219.3154000180839 70.63450622558594 213.5499267578125 C70.59942379987774 199.2314304624274 70.5920831484043 184.91295763844005 70.5946044921875 170.59442138671875 C70.59646402850058 158.49585903724977 70.58265234951432 146.39757765584307 70.5461254119873 134.29905700683594 C70.53526580275275 128.61205847267877 70.54745150362078 122.9253913856291 70.55995178222656 117.2384033203125 C70.55105074343828 113.75984362324658 70.54097754630652 110.28128666011929 70.529541015625 106.802734375 C70.53928451538081 105.2160545349121 70.54902801513663 103.62937469482421 70.55906677246094 101.99461364746094 C70.54948944091802 100.5393879699707 70.53991210937511 99.08416229248047 70.53004455566406 97.5848388671875 C70.53025383949284 96.32240104675293 70.53046312332162 95.05996322631836 70.53067874908447 93.75926971435547 C69.73204321116873 88.28502585176716 66.78093358287128 85.16710842883566 63.15625 81.1484375 C60.602631599660526 78.03302305158576 59.01067534637832 75.54772280728147 57.21875 72.0234375 C54.017578047390316 65.91439468991493 49.82991948850213 61.24291029293016 45.03125 56.3359375 C43.731874999999945 54.99531250000001 42.43249999999989 53.654687499999994 41.09375 52.2734375 C35.94527600929041 47.33510530482971 31.3732913332301 48.11851864920587 24.53125 48.0859375 C23.479375000000005 48.065312500000005 22.42750000000001 48.04468750000001 21.34375 48.0234375 C11.418470374695517 47.974302452349974 3.2108109344715103 50.82742020740875 -6.0390625 54.3125 C-9.21135865047654 55.42068878856648 -12.412885562488555 56.27205496145763 -15.65625 57.1484375 C-21.778623560055735 59.0105085117566 -25.473105856160373 61.68527114430378 -29.96875 66.3359375 C-31.206249999999955 67.53218750000002 -32.44375000000002 68.72843749999998 -33.71875 69.9609375 C-37.21595691921391 74.66871604509561 -38.56000103735323 78.44435479619898 -40.0703125 84.02734375 C-40.91140417956922 87.12475528302218 -41.90998458040315 90.08044034145667 -43.03125 93.0859375 C-43.67062499999997 94.81843750000002 -44.309999999999945 96.5509375 -44.96875 98.3359375 C-45.497668457031295 99.62232620239257 -46.02658691406248 100.90871490478514 -46.571533203125 102.23408508300781 C-48.42256402258158 108.99301188756175 -48.340066744607725 115.24199375124914 -48.26171875 122.215576171875 C-48.25733795166013 123.68979537963867 -48.25295715332027 125.16401458740233 -48.248443603515625 126.68290710449219 C-48.23705538490094 129.873267802015 -48.21873711770252 133.06360970769526 -48.194244384765625 136.25389671325684 C-48.15589027302326 141.30124583255383 -48.1363916027791 146.34835797341282 -48.121826171875 151.3958282470703 C-48.08757764733127 162.10513784313116 -48.0298283233368 172.8142517135238 -47.96875 183.5234375 C-47.897986504152186 195.9440960447257 -47.83681639872657 208.3646431943627 -47.800933837890625 220.78545570373535 C-47.78146603630148 225.7611899880668 -47.743947602950584 230.7365827920076 -47.705810546875 235.7122039794922 C-47.69491491121153 238.75629375174833 -47.68485947481031 241.8003866871345 -47.67578125 244.844482421875 C-47.660282287597624 246.23008361816403 -47.64478332519536 247.61568481445312 -47.628814697265625 249.04327392578125 C-47.62860321044923 250.3174668884277 -47.62839172363283 251.5916598510742 -47.628173828125 252.9044647216797 C-47.62151199340815 254.008144865036 -47.61485015869141 255.11182500839232 -47.60798645019531 256.24895000457764 C-48.261503707201086 261.84097725209716 -50.42373283095242 264.8201176792943 -54.46875 268.6484375 C-60.81717984107604 273.52312469939767 -67.12353321252942 272.55502572107116 -74.84375 272.5859375 C-75.48376953125 272.59625 -75.48376953125 272.59625 -78.72265625 272.6484375 C-79.95628906249999 272.65359375 -81.18992187499998 272.65875 -82.4609375 272.6640625 C-83.58870605468746 272.673408203125 -84.71647460937504 272.68275390625 -85.87841796875 272.6923828125 C-88.96875 272.3359375 -88.96875 272.3359375 -93.96875 269.3359375 C-97.1568092066176 264.5868622108106 -97.34279873768344 260.61984049690693 -97.34056091308594 254.9817657470703 C-97.34731842041015 253.2813412475586 -97.35407592773436 251.5809167480469 -97.36103820800781 249.82896423339844 C-97.35331893920898 247.96961746215823 -97.34559967041014 246.11027069091796 -97.337646484375 244.194580078125 C-97.34342819069082 241.18101252254564 -97.3492125819439 238.16744497096136 -97.35509788990021 235.15387761592865 C-97.3585815037244 231.91689104841043 -97.35472951821237 228.67998515659275 -97.34887504577637 225.44300270080566 C-97.33728374337068 218.68904585523205 -97.3494625919019 211.93526033404947 -97.36549377441406 205.1813201904297 C-97.40167707576461 188.4024254707419 -97.40792093378923 171.62353468130254 -97.4053955078125 154.8446044921875 C-97.40368278229732 141.8098695311835 -97.41085531890576 128.77527467282755 -97.44537407159805 115.74057883024216 C-97.46213543493161 109.0331372357413 -97.46040078236865 102.32603768713062 -97.44455134868622 95.6185976266861 C-97.43737240007488 90.4537674259872 -97.45600442740442 85.28908124835783 -97.470458984375 80.124267578125 C-97.46071548461919 78.27504196166993 -97.45097198486326 76.42581634521486 -97.44093322753906 74.52055358886719 C-97.50638799188539 62.80291187944579 -99.05278715228133 54.319389325751246 -104.65625 43.9609375 C-109.05946061096199 35.15451627807599 -108.85529690614987 26.23674388705939 -106.71875 16.8359375 C-104.96875 12.3359375 -104.96875 12.3359375 -100.96875 8.3359375 C-97.017929117731 8.068632890121592 -93.3431604942167 8.007406705125192 -89.40625 8.1484375 C-87.32173797732128 8.20168671677871 -85.23709075602972 8.249890070476539 -83.15234375 8.29296875 C-82.12713623046875 8.314560546874986 -81.1019287109375 8.336152343750001 -80.045654296875 8.3583984375 C-76.97736187253258 8.336000365371177 -74.00336424579655 8.099303573830014 -70.953125 7.77734375 C-63.8257733356304 7.146159785992353 -59.85466486208213 9.048725768737597 -54.03125 13.0234375 C-47.40158602725671 16.797246222946143 -42.794454025380105 15.824207181206305 -35.59375 13.8984375 C-30.036229804084655 11.742368740520249 -26.021380300918054 8.375329280908943 -21.671875 4.359375 C-15.251985434846915 -0.4462648768053441 -7.706653316582674 0.015621403519872956 0 0 Z " fill="#000000" transform="translate(991.96875,139.6640625)"/>
<path d="M0 0 C1.8227343749999818 0.04640624999998977 3.6454687499999636 0.09281250000000796 5.5234375 0.140625 C12.58580327205118 0.9842153984992308 17.00228222009855 3.532961665073884 22.625 7.75 C26.69642628687484 8.44007225201267 30.557196017497972 8.75 34.6875 8.75 C43.94355449663681 10.624643948685929 51.79924956238369 16.261652599710942 58.8125 22.4375 C62.19084361365503 25.37278215612642 64.64670833429022 26.84450560442832 68.625 28.6875 C76.67252487724818 32.54423833739813 81.65780440046342 37.74501271356888 85.875 45.5625 C89.22152546847724 51.66453611798039 93.52618021837839 55.559520888897396 98.75 60.078125 C102.85308079015226 63.89131421258713 105.58116731190466 68.05742460585296 108.625 72.75 C109.38812499999995 73.61624999999998 110.15124999999989 74.48250000000002 110.9375 75.375 C115.22611277569058 81.41082538800907 115.01289561494104 89.42990007592331 115.5 96.5625 C116.39379983821573 106.98323609826741 117.94463649680301 114.30303327878667 123.375 123.3125 C126.12597803450763 128.7380400125012 126.35136130713045 131.7212011508168 125.625 137.75 C124.44191434274217 140.83010231458508 123.09838082302781 143.8090284009129 121.7421875 146.81640625 C119.72704146728393 152.1079260771673 120.24118977639955 157.22214645835572 121.078125 162.734375 C122.35715096235481 172.44549804750864 119.64909773934778 178.97902968462574 115.625 187.75 C114.98562500000003 189.503125 114.34625000000005 191.25625000000002 113.6875 193.0625 C112.01516143819163 196.86326945865568 110.4590835502097 199.5709235155058 108.0625 202.875 C104.94630725735169 207.29432788957376 103.28954086538647 210.67711355310792 101.625 215.75 C95.91459506106571 232.2467253791433 82.13769791804702 246.24653001218138 66.6875 254.1875 C65.43839843749993 254.79078125 64.18929687500008 255.39406250000002 62.90234375 256.015625 C59.625 257.75000000000006 59.625 257.75000000000006 55.75 261.4375 C51.36984989219695 264.95489326838725 48.67333761117288 265.74353525059485 43.3125 267.125 C36.002634862227296 269.0305358990358 31.50351383362795 271.50784306392035 26.1171875 276.76171875 C19.37774661149092 282.1384827190457 10.394473296163596 281.07235146264003 2.22265625 281.0859375 C1.5268218231201445 281.08926589965824 1.5268218231201445 281.08926589965824 -1.9945220947265625 281.1061096191406 C-4.9321256654325225 281.1162167498325 -7.869752106525766 281.12092724112966 -10.807373046875 281.12060546875 C-15.293191249736537 281.12498116525745 -19.778027398693666 281.161331992508 -24.263671875 281.19921875 C-27.122392479570408 281.2050867772042 -29.98111774184804 281.20905626278267 -32.83984375 281.2109375 C-34.17651596069345 281.22530853271485 -35.51318817138667 281.2396795654297 -36.89036560058594 281.2544860839844 C-44.11926481994874 281.21913100149294 -49.10104835625225 280.7286473810527 -55.375 276.75 C-60.376997734329734 273.74880135940214 -61.8000099092676 273.41425063142503 -67.3125 273.3125 C-72.84037875189802 273.00123258331337 -76.26825633707335 272.75407507135344 -80.375 268.75 C-81.28250000000003 267.450625 -82.19000000000005 266.15125 -83.125 264.8125 C-88.14337937157075 258.5395257855366 -94.05539255109625 256.4403593597928 -101.625 254.1875 C-110.17736039598162 251.5992856696372 -117.40938498201308 246.0135784874219 -121.8671875 238.1015625 C-122.32351562500003 237.18117187500002 -122.77984375000005 236.26078125000004 -123.25 235.3125 C-125.41688714567294 230.98464616533624 -127.58864973077834 228.50082387008467 -131.375 225.5 C-136.8790332641097 220.92564649500002 -138.59893540720896 215.9897078735197 -140.93359375 209.3515625 C-142.95437990594564 204.302335302759 -145.89469802338976 200.8995908182659 -149.375 196.75 C-152.0909089276165 189.96022768095884 -152.59563649622874 183.1786041302787 -153.49609375 175.94921875 C-154.375 170.75 -154.375 170.75 -155.90283203125 167.035400390625 C-158.71713346021602 158.84312294740073 -157.8440177148932 150.07854894458433 -157.8125 141.5 C-157.82249023437498 140.54287109375002 -157.82249023437498 140.54287109375002 -157.873046875 135.69921875 C-157.86947839941968 125.37205042053876 -157.11711653745647 117.34590728222986 -153.375 107.75 C-152.72326802622615 103.17306409326969 -152.38597164765406 98.65634597906927 -152.0625 94.046875 C-151.07550655262253 87.87816595389071 -148.82074910548795 83.45345060767465 -144.7890625 78.703125 C-142.0753901325154 75.38348695822259 -141.06670459955217 72.5605470876514 -139.75 68.5 C-137.08373162092607 61.46573639525957 -133.82312479265033 57.66707611633035 -128.05078125 52.95703125 C-124.3844233909947 49.9329550597256 -121.48198060766822 46.334977624232636 -118.375 42.75 C-117.76656249999996 42.234375 -117.76656249999996 42.234375 -114.6875 39.625 C-111.375 36.75 -111.375 36.75 -109.625 33.8125 C-106.72154636150003 29.8605769920417 -103.32651123104756 28.02678423578027 -99.1484375 25.54296875 C-96.375 23.75 -96.375 23.75 -92.75 20.125 C-88.23683983128763 16.64341929842186 -85.48969393904463 15.77371194192503 -80.0625 14.375 C-72.75263486222752 12.469464100964245 -68.25351383362795 9.992156936079624 -62.8671875 4.73828125 C-56.35396971808632 -0.45800064810990193 -47.7527317006402 0.32740633118999085 -39.8125 0.125 C-38.625917968749945 0.08632812499999432 -37.43933593749989 0.04765624999998863 -36.216796875 0.0078125 C-24.143490839014703 -0.3594363528056306 -12.073573847545504 -0.3789138725335306 0 0 Z " fill="#000000" transform="translate(1691.375,139.25)"/>
<path d="M0 0 C1.5558984375002183 -0.02900390625001137 3.111796874999982 -0.058007812499994316 4.71484375 -0.087890625 C18.00228073465769 -0.15992427003774878 30.742774495520734 1.302204783084818 42.3125 8.3125 C47.03916722545773 11.019863189265465 51.29888459499807 12.974199126088251 56.5625 14.375 C62.68267978025597 16.09699942660069 66.07895317795601 18.76645317795581 70.625 23.3125 C72.53685945717689 25.02621155825375 74.45379697854469 26.734269880715004 76.375 28.4375 C79.83775291163238 31.534190460973946 82.73271910724543 34.68829496295638 85.625 38.3125 C86.90374999999995 39.38499999999999 88.18249999999989 40.45750000000001 89.5 41.5625 C98.9844918272729 50.184765297520954 102.1862699876674 60.118849938338116 104.625 72.3125 C104.72040600365881 74.88760504256129 104.75988752680087 77.46497378339814 104.76544189453125 80.04183959960938 C104.7711520385742 81.62887191772461 104.77686218261715 83.21590423583984 104.78274536132813 84.85102844238281 C104.78330429077141 85.7201863861084 104.78330429077141 85.7201863861084 104.7861328125 90.11865234375 C104.79109771728508 91.95156326293946 104.79606262207017 93.78447418212892 104.80117797851563 95.67292785644531 C104.81328250487331 100.69981161867622 104.82074342817305 105.72665380786063 104.82518863677979 110.75354719161987 C104.8281214218382 113.89460523344502 104.83222657370834 117.0356596407326 104.8366928100586 120.17671585083008 C104.85036197812633 130.00594038187506 104.86003206219539 139.8351565912812 104.86389470100403 149.6643899679184 C104.86837727330112 161.00838398566373 104.88593687889897 172.35225762190953 104.9148952960968 183.6962150335312 C104.93650883515147 192.4674804296555 104.94659877142749 201.2387119415837 104.94793581962585 210.01000368595123 C104.94898387354397 215.24777838830084 104.95489213123437 220.48543983760192 104.9727554321289 225.72318649291992 C104.99229108454347 231.5646834488192 104.98794834024329 237.4060297244124 104.9814453125 243.24755859375 C104.99066009521493 244.9818260192871 104.99987487792987 246.7160934448242 105.00936889648438 248.50291442871094 C105.00658432006821 249.29925041198732 105.00658432006821 249.29925041198732 104.99249267578125 253.32919311523438 C104.9939592361452 254.70999746322633 104.9954257965087 256.0908018112183 104.9969367980957 257.51344871520996 C104.34579194658863 264.16439774033506 102.33692517651298 267.60057482348697 97.625 272.3125 C92.51896840176914 274.0145105327436 87.13682581682224 273.2954477608207 81.8125 273.125 C81.224365234375 273.115654296875 81.224365234375 273.115654296875 78.248046875 273.068359375 C69.95579868119466 272.80116991934887 65.77275029640077 271.53179007586454 59.875 265.5 C56.106604273003995 260.1614393867555 55.36930500400513 254.94884721396465 55.44264221191406 248.5152130126953 C55.45264251708977 247.18508178710937 55.46264282226548 245.85495056152342 55.47294616699219 244.48451232910156 C55.494200592041125 243.0417643737793 55.51545501709006 241.59901641845704 55.537353515625 240.112548828125 C55.55163391113274 238.57998443603515 55.56591430664048 237.0474200439453 55.58062744140625 235.46841430664063 C55.61276444527766 232.1432370638354 55.64954914756345 228.81810222969773 55.69043159484863 225.49302101135254 C55.75443716180553 220.22584117602173 55.80477302876807 214.958691367426 55.85130310058594 209.6913299560547 C55.98619184777044 194.7158024878106 56.14686493839508 179.74057714355285 56.314208984375 164.765380859375 C56.41566027270028 155.60214565677757 56.50202483428757 146.43886333860945 56.579572677612305 137.2753963470459 C56.61230652514769 133.78802094675825 56.651012892405106 130.3006961942745 56.69586372375488 126.81345558166504 C56.75862794345221 121.92880335551172 56.802336092858695 117.04431026259607 56.842041015625 112.159423828125 C56.865319671630914 110.7267970275879 56.88859832763683 109.29417022705078 56.91258239746094 107.81813049316406 C56.97492551802634 96.14711359716688 55.137066828692696 86.41824081065317 49.6875 75.9375 C49.01847656249993 74.63039062500002 48.349453124999854 73.32328124999998 47.66015625 71.9765625 C43.40990871205395 64.32448535874585 40.26496196231392 60.02995938465304 31.59765625 57.390625 C30.49292968749978 57.076093749999984 29.388203125000018 56.7615625 28.25 56.4375 C22.202275735607145 54.69869267999701 17.85244720461924 51.82347200310235 12.625 48.3125 C5.549324155965678 46.29087833027586 1.2018528229764343 48.38945430089933 -5.375 51.3125 C-11.69004600163089 53.71850922386869 -16.943204166755095 54.65469407384441 -23.6875 54.75 C-35.664647252343 55.263039796634644 -44.3588012228297 57.240018262866556 -53.13671875 65.8359375 C-56.654717710166096 69.72845292887502 -59.56337640557922 73.9050900411782 -62.375 78.3125 C-63.09171874999993 79.3128125 -63.808437499999854 80.31312500000001 -64.546875 81.34375 C-69.2029034553625 88.14617455180601 -71.25417172185962 93.14563112561007 -71.046875 101.4375 C-71.35980968833974 105.13310965277137 -72.15069044542497 107.70981015692996 -73.37010192871094 111.18061828613281 C-75.61125063210056 118.34631070385063 -75.89753192833405 124.83520260596987 -75.781494140625 132.297607421875 C-75.77725936889647 133.62943557739254 -75.77302459716793 134.9612637329102 -75.76866149902344 136.3334503173828 C-75.75686112190715 139.2018099353179 -75.73577272255352 142.07014377983774 -75.70622444152832 144.93837547302246 C-75.65948632097297 149.4831115191247 -75.63744776038175 154.0274001187081 -75.62144470214844 158.5723419189453 C-75.58928012796105 166.5796606585787 -75.53565787229445 174.58666391380524 -75.47479248046875 182.59381103515625 C-75.37730876728983 195.4187428132991 -75.29661213871395 208.2436062565053 -75.24612236022949 221.06881141662598 C-75.2230105341414 225.5369756877891 -75.18094975817166 230.00469360053086 -75.13771057128906 234.4727020263672 C-75.12361287786052 237.22032261970742 -75.11030100939934 239.96794739517293 -75.097900390625 242.715576171875 C-75.08083038330096 243.9496017456055 -75.06376037597647 245.18362731933593 -75.04617309570313 246.45504760742188 C-75.03439671995602 254.67334712857075 -75.83184366916521 262.1031377972392 -80.1875 269.3125 C-86.0075183613435 274.633659644657 -93.47643043857533 273.495417345909 -100.875 273.1875 C-101.99003906249982 273.164296875 -103.10507812500009 273.14109375 -104.25390625 273.1171875 C-112.5270028571963 272.8016462706433 -116.46056168778978 271.29317554657877 -122.125 265.5 C-126.04174806005312 259.9512735815915 -126.62637333050998 254.5739956244314 -126.55062866210938 247.90106201171875 C-126.54490592956563 247.16796058654785 -126.54490592956563 247.16796058654785 -126.51594543457031 243.45802307128906 C-126.49311996459983 241.86409225463865 -126.47029449462889 240.2701614379883 -126.44677734375 238.6279296875 C-126.43089065551749 236.9377018737793 -126.41500396728497 235.2474740600586 -126.39863586425781 233.5060272216797 C-126.36313914557786 229.83708014232934 -126.32307843475655 226.168175036148 -126.27900314331055 222.49932098388672 C-126.21041992346 216.69053789435986 -126.15627657319328 210.8817865664945 -126.10635375976563 205.07281494140625 C-125.96224446759516 188.55693808022198 -125.79552922673156 172.04134509250838 -125.6103515625 155.52587890625 C-125.49724380774751 145.4225092456258 -125.40575413360239 135.31912301836792 -125.3255500793457 125.2154312133789 C-125.29093521339837 121.36716320969856 -125.24861085284101 117.51895648369663 -125.19840621948242 113.67086029052734 C-125.12849696183957 108.28544891009537 -125.0837245815951 102.90035793487061 -125.04443359375 97.5146484375 C-125.0175596618651 95.92881454467772 -124.99068572998067 94.34298065185547 -124.96299743652344 92.70909118652344 C-124.92839110372142 83.90236476465122 -125.80852100195307 77.38141052774625 -129.375 69.3125 C-131.23512814427272 63.803658957346386 -131.68573213016975 58.87302360378544 -131.875 53.0625 C-132.17520410394513 45.95585012115464 -133.09481819711414 39.31082718910943 -134.375 32.3125 C-135.03429939323678 24.314911708128534 -134.97581985106012 18.21372977659024 -130.375 11.3125 C-121.73440151244495 4.832051134333767 -108.59800162325519 6.8874755313038065 -98.375 8.3125 C-93.06647560200508 10.179636167570663 -88.28493288617665 12.58698623461214 -83.375 15.3125 C-74.342516114712 18.323327961762686 -64.02115903078675 15.549485646994015 -55.375 12.3125 C-52.130781607062545 10.162218515920898 -49.35025416534472 7.89424624046822 -46.51171875 5.23828125 C-42.405343377168265 1.5372884551076993 -37.88198580959306 2.0552801184492466 -32.5625 1.8125 C-23.958275358285846 1.4178754464078622 -23.958275358285846 1.4178754464078622 -20.592529296875 0.809814453125 C-13.797560917476403 -0.24044357774491232 -6.861303524226969 0.04160046599167799 0 0 Z " fill="#000000" transform="translate(2177.375,139.6875)"/>
<path d="M0 0 C1.795664062500009 -0.023847656250012506 3.591328125000018 -0.04769531249999659 5.44140625 -0.072265625 C7.1623046874999545 -0.07033203124998977 8.883203125000023 -0.06839843750000796 10.65625 -0.06640625 C12.232128906249955 -0.06713134765624318 13.808007812500023 -0.06785644531248636 15.431640625 -0.068603515625 C19.5 0.5625 19.5 0.5625 22.427734375 2.476806640625 C27.78607681064375 10.455610839977197 26.746540104373253 20.94005333279037 26.6318359375 30.17822265625 C26.62249023437505 31.613921051025386 26.613144531249986 33.04961944580077 26.603515625 34.52882385253906 C26.582573239111753 37.63618664501769 26.557268845596127 40.743522470178675 26.52806854248047 43.8508186340332 C26.483808829676605 48.78974120615314 26.455785211666353 53.72850763592629 26.43267822265625 58.667572021484375 C26.36572633863716 72.70763415444608 26.28298734664486 86.74744121616408 26.1572265625 100.787109375 C26.081333022859326 109.38984897353049 26.035699758257806 117.9923228853088 26.00861358642578 126.5953483581543 C25.99264493207761 129.85232304060213 25.96562983072863 133.1092651423304 25.92675018310547 136.36604690551758 C25.410701450123952 180.3891955218229 25.410701450123952 180.3891955218229 36.5 197.5625 C38.71875 199.8203125 38.71875 199.8203125 41 201.6875 C45.5 205.5625 45.5 205.5625 47.625 208.3125 C52.327446569462154 213.95543588335465 59.092838262196096 215.47608178420626 65.92578125 217.2421875 C69.5 218.5625 69.5 218.5625 74.09765625 221.6796875 C80.21999129011215 225.45694287540198 85.60570005441218 225.27348078874354 92.625 224.8125 C93.81552978515629 224.75175292968754 95.00605957031246 224.69100585937497 96.232666015625 224.62841796875 C104.48473149779215 224.06410705344445 111.52119651913199 222.43547817424496 119.11328125 219.046875 C122.45055358870422 217.58417201417808 125.57341026245467 216.71616766474807 129.125 215.9375 C137.5015202730267 213.7946692324815 142.1125723077604 209.25130278840095 148.5 203.5625 C149.4990234375 202.812265625 150.498046875 202.06203125000002 151.52734375 201.2890625 C154.90886859717625 198.18747992006695 156.25773275205006 195.57162745607627 158.0625 191.375 C158.64386718750006 190.0562890625 159.225234375 188.73757812500003 159.82421875 187.37890625 C160.37722656250003 186.1194921875 160.93023437500005 184.86007812499997 161.5 183.5625 C162.44374915252934 181.63861033944534 163.3998422338276 179.72066173841802 164.375 177.8125 C166.8930784914669 172.7763430170662 167.6258249600462 169.75506801895233 167.63803100585938 164.21258544921875 C167.64348434448243 162.8807270812988 167.6489376831055 161.5488687133789 167.65455627441406 160.17665100097656 C167.65559860229496 158.71166671752928 167.65664093017574 157.246682434082 167.65771484375 155.7373046875 C167.66279556274412 154.1972929382324 167.66787628173824 152.65728118896482 167.67311096191406 151.0706024169922 C167.6838305126082 147.71811242028002 167.69244444035508 144.36561519621915 167.6992301940918 141.01311492919922 C167.710992148605 135.70973433754557 167.73043813061372 130.40643617602177 167.75234985351563 125.10308837890625 C167.81405737409295 110.02139012373482 167.86803566411731 94.93969988857114 167.9013671875 79.85791015625 C167.9222889781039 70.64078328728749 167.95757401728963 61.42380583762065 168.00212478637695 52.206764221191406 C168.0163061966589 48.69021613324361 168.0250120194421 45.17364160196857 168.02817916870117 41.657066345214844 C168.03307661557096 36.73964256681958 168.05620677474008 31.822616657506785 168.08349609375 26.9052734375 C168.08199302673347 26.176829757690427 168.08199302673347 26.176829757690427 168.0743865966797 22.490463256835938 C168.07993309021003 21.81889442443847 168.07993309021003 21.81889442443847 168.10800170898438 18.42034912109375 C168.11131185531622 17.25817745208741 168.11462200164794 16.09600578308107 168.11803245544434 14.898616790771484 C168.69101193279664 9.894195649739515 170.28541476118846 5.929186203644463 173.634765625 2.160400390625 C180.14026481811356 -1.4676238270751014 188.75118370189682 -0.044231829528996514 196 0 C196.89783203125 -0.011923828124992042 196.89783203125 -0.011923828124992042 201.44140625 -0.072265625 C203.16230468749995 -0.07033203124998977 204.88320312500002 -0.06839843750000796 206.65625 -0.06640625 C208.23212890624995 -0.06713134765624318 209.80800781250002 -0.06785644531248636 211.431640625 -0.068603515625 C215.5 0.5625 215.5 0.5625 218.427734375 2.476806640625 C223.78992155273932 10.461335827647474 222.79670730445628 21.120245388994988 222.79052734375 30.384521484375 C222.79724456787108 31.841101684570305 222.80396179199215 33.29768188476561 222.81088256835938 34.79840087890625 C222.82981638444573 39.59350025003016 222.83378416159758 44.38845936947811 222.8359375 49.18359375 C222.84236740665278 52.52840735733105 222.84909591257144 55.8732204027996 222.85610961914063 59.21803283691406 C222.86806997751046 66.22097070600415 222.8717915843073 73.22385928152875 222.87060546875 80.226806640625 C222.87040208060705 89.1891051598314 222.89773139894442 98.15108730654973 222.93214988708496 107.11331081390381 C222.95440969063475 114.01847275989007 222.95844331232195 120.92355836653496 222.9573860168457 127.8287525177002 C222.95974229386263 131.13269200830752 222.96856720826997 134.43663359374398 222.98405075073242 137.74053764343262 C223.00369531944045 142.36427761666823 222.997877537318 146.9873324454021 222.98583984375 151.611083984375 C222.9970788574219 152.96778701782227 223.0083178710937 154.32449005126955 223.0198974609375 155.72230529785156 C222.96090947743596 164.66093218074394 221.53208958370203 171.49832083259605 217.5 179.5625 C217.473002753297 181.833268417128 217.4536054736609 184.10412821381885 217.4375 186.375 C216.36312030028625 203.99166713501177 208.9186246771368 218.34542603547595 196.5 230.5625 C195.53964843749998 231.55765625000004 194.57929687499995 232.55281249999996 193.58984375 233.578125 C187.28319451199445 239.7914052721669 180.79851335581975 243.81277976667081 172.8828125 247.72265625 C169.5 249.5625 169.5 249.5625 165.625 253.25 C161.22845712017443 256.7805571610721 158.44576230293023 257.5968907985412 153.0625 259 C145.10479391385797 261.0780385325384 141.1650469144147 263.70210664026064 135.5 269.5625 C131.5392357119016 270.88275476269945 127.8580414783786 270.8721574386396 123.6875 271.0625 C115.0832753582855 271.45712455359217 115.0832753582855 271.45712455359217 111.717529296875 272.065185546875 C104.92256091747663 273.11544357774494 97.98630352422674 272.8333995340083 91.125 272.875 C89.56910156250001 272.90400390625 88.01320312500002 272.9330078125 86.41015625 272.962890625 C73.12271926534208 273.0349242700378 60.38222550447915 271.5727952169152 48.8125 264.5625 C44.12097623151976 261.8759853367861 39.91568921846681 259.93382831959786 34.6875 258.5625 C28.974779243329863 256.9810516929706 25.460440822746364 254.53164232591547 21.046875 250.64453125 C18.242400602411863 248.35191644338272 15.35890094528304 246.68177051990568 12.1875 244.9375 C4.111095673639625 240.33271334963888 0.7502155405109079 234.36049880947166 -3.7421875 226.4453125 C-5.5 223.5625 -5.5 223.5625 -8.5625 220 C-11.108735025448595 217.02036326809207 -12.65898634259679 214.5596956875777 -14.4375 211.125 C-17.139050243855422 205.92916130348442 -20.55105205367329 201.8985997057705 -24.5 197.5625 C-25.8748901815336 193.43782945539908 -25.813854044934033 189.52868959493173 -26 185.1875 C-26.217272434499137 180.13591589789428 -26.50736030285782 175.52569848571085 -27.5 170.5625 C-27.593711787988468 168.36719263480268 -27.634801480353417 166.16937578401837 -27.64044189453125 163.97207641601563 C-27.6461520385742 162.6374687194824 -27.65186218261715 161.30286102294923 -27.657745361328125 159.9278106689453 C-27.658863220214812 158.47001693725588 -27.659981079101613 157.01222320556644 -27.6611328125 155.51025390625 C-27.666097717285197 153.96995010375974 -27.67106262207028 152.42964630126954 -27.676177978515625 150.84266662597656 C-27.690796931345517 145.74146072889675 -27.697600597762175 140.6402859123299 -27.703125 135.5390625 C-27.70887589308859 131.99815876180634 -27.714633633897847 128.45725503472818 -27.72039794921875 124.91635131835938 C-27.730906644514448 117.49013117163872 -27.736750440102583 110.06392184993524 -27.740234375 102.6376953125 C-27.745724110145147 93.11554637981646 -27.76976331369258 83.59354007723334 -27.798206329345703 74.07143592834473 C-27.816814516795148 66.75724873091241 -27.822037312675093 59.44309604878177 -27.823570251464844 52.12888717651367 C-27.826600514985103 48.61789544376484 -27.83464151935823 45.106904370982136 -27.847755432128906 41.5959358215332 C-27.864779948599562 36.68835784784096 -27.862944145571078 31.7811305505667 -27.8564453125 26.87353515625 C-27.86566009521482 25.419789886474604 -27.874874877929642 23.966044616699207 -27.884368896484375 22.468246459960938 C-27.878799743652394 21.127999114990246 -27.8732305908203 19.787751770019526 -27.86749267578125 18.406890869140625 C-27.868959236144974 17.24731683731079 -27.870425796508812 16.087742805480957 -27.871936798095703 14.893030166625977 C-27.312942844339887 9.887485580886192 -25.71357262931656 5.928046786350166 -22.365234375 2.160400390625 C-15.859735181886435 -1.4676238270751298 -7.248816298103179 -0.044231829528996514 0 0 Z " fill="#000000" transform="translate(615.5,147.4375)"/>
<path d="M0 0 C8.687669034052988 0.6716089428951477 17.30351573021835 0.7740739798691436 26.014083862304688 0.762481689453125 C27.6633990478515 0.7642340087890602 29.312714233398538 0.7659863281249955 31.012008666992188 0.767791748046875 C36.414159959323115 0.7721602465859689 41.8162779932411 0.7692903789137802 47.21842956542969 0.765899658203125 C50.998280906477476 0.7665740370880485 54.778132205125985 0.7675451816937766 58.5579833984375 0.768798828125 C66.45822992023363 0.7702689417129704 74.35846792885991 0.7682396757359413 82.25871276855469 0.763458251953125 C91.36216027773139 0.7580118778641065 100.4655853986958 0.7597850115398614 109.56903237104416 0.7652846574783325 C118.37042410866661 0.770386710110671 127.1718074079281 0.7698249496679637 135.97319984436035 0.7669029235839844 C139.6997204149743 0.7662377036080841 143.4262415606529 0.7670478810175894 147.1527614593506 0.7693824768066406 C152.36436334002246 0.7719318279596052 157.5759226393145 0.7680364715529606 162.7875213623047 0.762481689453125 C164.31462234497076 0.7645059204101585 165.84172332763683 0.766530151367192 167.41510009765625 0.76861572265625 C173.9837078422861 0.7556952935103141 180.4647401641089 0.6281536394222087 187.01025390625 0.0546875 C192.57910793078509 -0.35746882762487076 195.0676251916475 -0.328031325062085 199.7067108154297 2.633087158203125 C206.34978561281878 9.450979713418263 204.9585569091962 18.146375754380017 205.0192108154297 27.070587158203125 C205.04821472167964 28.48920043945313 205.0772186279296 29.907813720703132 205.1071014404297 31.369415283203125 C205.11548034667976 32.733887939453126 205.1238592529296 34.09836059570313 205.1324920654297 35.504180908203125 C205.13978332519537 36.12772460937501 205.13978332519537 36.12772460937501 205.1766815185547 39.283233642578125 C204.6216086414795 43.23967777055202 203.53601363987286 44.86132297441071 200.7067108154297 47.633087158203125 C197.3432313579849 48.754246977351414 194.7648650433955 48.77816814848501 191.2191619873047 48.806671142578125 C190.54825279235843 48.81341606140137 190.54825279235843 48.81341606140137 187.15304565429688 48.84754943847656 C185.6999348449708 48.857987823486326 184.24682403564452 48.86842620849609 182.7496795654297 48.879180908203125 C179.68782773915268 48.91211850194355 176.62597885109085 48.94533016364113 173.5641326904297 48.978790283203125 C168.7252046653125 49.026223525564205 163.88628863736335 49.07065140394275 159.0472869873047 49.109893798828125 C154.3854573415474 49.14959221047678 149.7238738480237 49.20114371491229 145.0621795654297 49.254180908203125 C143.61514144897455 49.262595062255855 142.16810333251942 49.271009216308585 140.67721557617188 49.27967834472656 C140.00157814025874 49.28799934387206 140.00157814025874 49.28799934387206 136.5824432373047 49.330108642578125 C135.3968028259278 49.34041610717773 134.2111624145507 49.35072357177734 132.98959350585938 49.36134338378906 C131.9062422180175 49.45101882934571 130.82289093017584 49.540694274902336 129.7067108154297 49.633087158203125 C129.16142982482916 49.67746162414551 129.16142982482916 49.67746162414551 126.4019775390625 49.90202331542969 C123.70671081542969 51.633087158203125 123.70671081542969 51.633087158203125 122.34413146972656 56.76191711425781 C121.44519584505178 64.3526644666332 121.4536791539449 71.9379718470473 121.50798034667969 79.57180786132813 C121.51101669311515 81.12288742065431 121.51405303955084 82.67396697998046 121.51718139648438 84.27204895019531 C121.53039888385547 89.36776054747415 121.55904679254968 94.46323273622335 121.58952331542969 99.55886840820313 C121.60555294484016 103.11218621497105 121.62124410170236 106.66550556334613 121.63661193847656 110.21882629394531 C121.67153200010807 117.65034874787966 121.71488184200075 125.08176828029804 121.76335144042969 132.51321411132813 C121.82419572592062 142.04069541878835 121.85734917677064 151.56805346014585 121.88340950012207 161.095685005188 C121.90763234463611 168.42625270586046 121.94982924638589 175.75663590346994 121.99714279174805 183.0870876312256 C122.0170116305278 186.60083203354338 122.03048552217683 190.1146185995982 122.0374641418457 193.6284122467041 C122.04923056800658 198.53304966785885 122.08598533939517 203.43689061171017 122.12907409667969 208.34133911132813 C122.1271858215332 209.7934378051758 122.12529754638672 211.24553649902344 122.12335205078125 212.74163818359375 C122.23384093199593 221.5432347753408 123.05088114903492 226.8922381972411 129.3942108154297 233.38308715820313 C129.77577331542966 233.75433715820316 129.77577331542966 233.75433715820316 131.7067108154297 235.63308715820313 C134.48518553396184 243.9685113137997 133.19655527886061 253.7486237408221 129.7067108154297 261.6330871582031 C123.45771427363047 267.8820837000024 111.47739927096586 265.8490330526952 103.01921081542969 265.8830871582031 C102.37306823730478 265.8933996582031 102.37306823730478 265.8933996582031 99.10319519042969 265.9455871582031 C97.85473815917976 265.95074340820315 96.6062811279296 265.9558996582031 95.31999206542969 265.9612121582031 C94.19375427246086 265.97055786132813 93.06751647949227 265.97990356445314 91.90715026855469 265.9895324707031 C88.20603901793129 265.57732540487734 85.86789929072893 264.5824076021625 82.70671081542969 262.6330871582031 C78.09710446120926 256.7853633947912 77.117548444166 252.56021986353358 77.08171081542969 245.19558715820313 C77.00579088831728 235.84984413066593 74.9589810439943 228.60971562796766 70.58171081542969 220.38308715820313 C67.54070018633115 214.66417164676386 66.57880250794324 209.71231357544116 66.60664367675781 203.25698852539063 C66.60812408447259 202.61348197937014 66.60812408447259 202.61348197937014 66.61561584472656 199.35694885253906 C66.6239242553711 197.95211746215818 66.63223266601563 196.5472860717773 66.64079284667969 195.09988403320313 C66.64312927246101 194.3573865509033 66.64312927246101 194.3573865509033 66.65495300292969 190.5998992919922 C66.6654584793855 187.37402112214818 66.678122116145 184.14814943017723 66.69267654418945 180.9222869873047 C66.71465634375431 175.82096241527404 66.72876263169928 170.7196747517745 66.74037170410156 165.61831665039063 C66.77401269976008 151.1135858069457 66.8157085372145 136.60891637694033 66.87809753417969 122.10427856445313 C66.91568346021586 113.23506321852443 66.93874900810442 104.36591086528955 66.9524040222168 95.49662780761719 C66.96047418174271 92.1123631003282 66.97410517760932 88.72810702093113 66.99333572387695 85.34388732910156 C67.01972545431454 80.61794192991186 67.02769999870588 75.89230004082211 67.03141784667969 71.16629028320313 C67.04377471923817 69.76145889282225 67.05613159179688 68.35662750244143 67.06886291503906 66.90922546386719 C67.06618408203121 65.62221237182615 67.06350524902336 64.33519927978517 67.06074523925781 63.009185791015625 C67.06480943679799 61.892014236450194 67.06887363433839 60.77484268188476 67.07306098937988 59.623817443847656 C66.70671081542969 56.633087158203125 66.70671081542969 56.633087158203125 63.70671081542969 51.633087158203125 C57.67038527807381 49.21855694326072 52.315427920762886 49.33583885128559 45.92546081542969 49.324493408203125 C43.36686471030862 49.29934122665773 40.808271013301464 49.27394309158487 38.24967956542969 49.248321533203125 C34.22055137063876 49.219538531689466 30.191464853262005 49.19551629383713 26.162277221679688 49.176788330078125 C22.27062286132241 49.15516538791226 18.379449392502693 49.11573599207384 14.487960815429688 49.074493408203125 C13.885303955078143 49.074435501098634 13.885303955078143 49.074435501098634 10.835494995117188 49.07414245605469 C4.881808330942704 49.0035305252307 1.9268729932493898 48.76518446489493 -3.2932891845703125 45.633087158203125 C-5.2307891845703125 43.445587158203125 -5.2307891845703125 43.445587158203125 -7.2932891845703125 40.633087158203125 C-8.262664184570212 39.35433715820312 -9.23203918457034 38.07558715820312 -10.230789184570313 36.758087158203125 C-11.241414184570203 35.39683715820314 -12.252039184570322 34.03558715820313 -13.293289184570313 32.633087158203125 C-14.221414184570222 31.395587158203114 -15.149539184570358 30.15808715820313 -16.105789184570313 28.883087158203125 C-19.858414510450757 23.30775810260917 -19.610077487500575 18.206444444005797 -19.293289184570313 11.633087158203125 C-17.798531067439853 7.1488128068119465 -16.646370279801886 4.986168253434698 -13.293289184570313 1.633087158203125 C-8.634157850988686 -0.4314239608560797 -5.030792244979466 -0.4588374288327941 0 0 Z " fill="#000000" transform="translate(1321.2932891845703,147.36691284179688)"/>
</svg>
